<svg width="17" height="17" viewBox="0 0 17 17" fill="none" xmlns="http://www.w3.org/2000/svg">
<path d="M12.6839 5.72538H13.3886C14.1362 5.72538 14.8531 6.02234 15.3817 6.55094C15.9103 7.07954 16.2073 7.79648 16.2073 8.54403C16.2073 9.29159 15.9103 10.0085 15.3817 10.5371C14.8531 11.0657 14.1362 11.3627 13.3886 11.3627H12.6839" stroke="#55D688" stroke-width="1.5" stroke-linecap="round" stroke-linejoin="round"/>
<path d="M1.40931 5.72538H12.6839V12.0674C12.6839 12.8149 12.387 13.5318 11.8584 14.0604C11.3298 14.589 10.6128 14.886 9.86527 14.886H4.22796C3.48041 14.886 2.76347 14.589 2.23487 14.0604C1.70627 13.5318 1.40931 12.8149 1.40931 12.0674V5.72538Z" stroke="#55D688" stroke-width="1.5" stroke-linecap="round" stroke-linejoin="round"/>
<path d="M4.22798 0.792746V2.90674" stroke="#55D688" stroke-width="1.5" stroke-linecap="round" stroke-linejoin="round"/>
<path d="M7.04666 0.792746V2.90674" stroke="#55D688" stroke-width="1.5" stroke-linecap="round" stroke-linejoin="round"/>
<path d="M9.86527 0.792746V2.90674" stroke="#55D688" stroke-width="1.5" stroke-linecap="round" stroke-linejoin="round"/>
</svg>
